<?xml version="1.0" encoding="UTF-8" ?>
<!DOCTYPE svg PUBLIC "-//W3C//DTD SVG 1.1//EN" "http://www.w3.org/Graphics/SVG/1.1/DTD/svg11.dtd">
<svg width="788pt" height="145pt" viewBox="0 0 788 145" version="1.1" xmlns="http://www.w3.org/2000/svg">
<g id="#f8f8faff">
</g>
<g id="#030304ff">
<path fill="#030304" opacity="1.00" d=" M 41.21 7.46 C 54.71 7.17 68.23 7.14 81.73 7.45 L 81.25 8.36 C 82.08 8.44 83.74 8.61 84.57 8.69 C 84.53 9.13 84.45 10.00 84.41 10.43 L 85.75 10.58 C 85.73 10.85 85.68 11.39 85.65 11.66 C 86.73 14.12 86.85 16.95 85.75 19.43 C 85.73 19.69 85.69 20.22 85.67 20.49 L 84.50 20.59 C 84.48 20.88 84.46 21.46 84.45 21.75 C 83.65 22.42 82.05 23.77 81.26 24.45 C 81.37 23.95 81.61 22.95 81.73 22.46 C 80.75 25.06 78.06 24.32 76.03 24.49 C 64.87 24.42 53.71 24.38 42.55 24.59 L 42.67 25.21 C 42.27 25.56 41.48 26.27 41.08 26.62 L 40.29 26.43 L 40.61 28.16 C 40.27 28.22 39.59 28.33 39.26 28.39 L 39.52 29.63 L 38.20 29.55 C 38.31 29.99 38.53 30.87 38.65 31.31 L 37.30 31.56 C 37.38 32.01 37.53 32.91 37.61 33.37 L 36.29 33.56 C 36.35 34.01 36.47 34.92 36.54 35.38 L 35.20 35.62 C 35.30 36.08 35.50 36.98 35.60 37.44 L 34.26 37.54 C 34.35 37.99 34.51 38.91 34.60 39.36 L 33.25 39.59 C 33.35 40.04 33.55 40.95 33.65 41.40 L 32.36 41.61 C 32.43 42.06 32.56 42.96 32.62 43.41 L 31.28 43.60 C 31.39 44.06 31.61 44.99 31.72 45.46 L 30.31 45.57 C 30.41 46.03 30.59 46.96 30.68 47.42 L 29.31 47.62 C 29.39 47.98 29.55 48.70 29.64 49.06 C 28.86 50.02 28.08 50.98 27.29 51.93 C 27.35 52.29 27.46 53.01 27.52 53.37 L 26.29 53.60 C 26.38 54.05 26.57 54.95 26.66 55.40 L 25.28 55.59 C 25.37 56.04 25.55 56.96 25.64 57.42 L 24.30 57.57 C 24.39 58.02 24.56 58.93 24.65 59.38 L 23.35 59.62 C 23.42 60.08 23.58 61.00 23.66 61.46 L 22.25 61.56 C 22.34 62.02 22.53 62.93 22.63 63.39 L 21.32 63.66 C 21.45 64.11 21.71 65.02 21.84 65.47 L 20.69 65.45 C 20.55 67.14 20.40 68.83 20.26 70.53 L 19.61 70.40 C 19.62 72.45 19.61 74.51 19.59 76.56 L 20.25 76.52 C 20.35 77.68 20.45 78.85 20.56 80.01 C 21.23 81.36 21.88 82.73 22.54 84.08 C 22.59 84.26 22.69 84.62 22.75 84.80 C 23.05 85.43 23.66 86.70 23.96 87.33 L 24.61 87.58 C 24.62 87.87 24.65 88.46 24.66 88.75 C 26.02 91.13 27.21 93.60 28.54 95.99 C 28.56 96.22 28.60 96.67 28.62 96.89 C 28.93 97.52 29.54 98.78 29.84 99.40 L 30.70 99.61 C 30.62 100.06 30.46 100.96 30.38 101.41 L 31.70 101.59 C 31.62 102.04 31.47 102.93 31.39 103.38 L 32.69 103.58 C 32.60 104.03 32.41 104.94 32.32 105.39 L 33.66 105.62 C 33.59 106.07 33.44 106.98 33.37 107.43 L 34.69 107.64 C 34.60 108.09 34.42 109.00 34.34 109.45 L 35.67 109.58 C 35.58 110.04 35.41 110.95 35.32 111.41 L 36.66 111.61 C 36.57 112.07 36.38 112.99 36.29 113.44 L 37.64 113.62 C 37.56 114.08 37.39 114.99 37.31 115.45 L 38.65 115.65 C 38.56 116.09 38.37 116.97 38.28 117.41 L 39.53 117.50 C 39.54 117.82 39.57 118.46 39.58 118.78 C 40.46 119.67 41.33 120.57 42.18 121.49 C 42.53 121.41 43.23 121.26 43.57 121.18 C 43.53 121.47 43.43 122.04 43.38 122.33 C 56.09 122.80 68.81 122.44 81.52 122.65 L 81.62 123.79 C 82.08 123.64 83.00 123.34 83.46 123.19 L 83.25 124.09 C 83.66 124.50 84.47 125.33 84.88 125.74 L 85.62 125.55 C 85.62 125.84 85.62 126.41 85.62 126.69 C 86.69 129.33 86.55 132.18 86.24 134.96 C 84.74 136.34 83.26 137.73 81.71 139.05 L 81.60 139.36 C 67.87 139.29 54.14 139.44 40.41 139.34 L 40.39 138.09 C 39.92 138.30 38.99 138.72 38.52 138.93 L 38.72 137.61 C 37.26 137.52 35.80 137.44 34.35 137.35 L 34.57 135.08 L 33.20 137.79 L 33.71 135.44 C 33.16 135.44 32.05 135.44 31.49 135.44 C 31.48 134.95 31.46 133.96 31.45 133.46 C 30.96 133.53 29.98 133.67 29.49 133.74 L 29.62 132.40 L 28.29 132.51 C 28.34 132.06 28.44 131.15 28.49 130.69 C 27.97 130.62 26.94 130.49 26.42 130.42 C 26.47 129.94 26.57 128.99 26.62 128.52 L 25.37 128.65 L 25.62 127.39 L 24.38 127.36 C 24.47 126.92 24.64 126.05 24.73 125.62 L 23.82 125.51 C 23.30 124.17 22.74 122.84 22.21 121.50 L 21.32 121.39 C 21.41 120.94 21.59 120.03 21.68 119.58 L 20.34 119.42 C 20.43 118.97 20.60 118.06 20.68 117.61 L 19.33 117.42 C 19.42 116.96 19.59 116.05 19.68 115.59 L 18.34 115.42 C 18.42 114.97 18.60 114.07 18.68 113.62 L 17.81 113.50 C 17.31 112.16 16.76 110.84 16.25 109.50 L 15.95 109.41 C 15.20 107.85 14.40 106.31 13.55 104.80 C 13.57 104.49 13.61 103.86 13.62 103.54 L 12.40 103.36 C 12.49 102.92 12.66 102.05 12.74 101.61 L 11.97 101.42 C 11.27 99.82 10.50 98.24 9.67 96.70 C 9.68 96.42 9.69 95.85 9.69 95.56 L 8.41 95.36 C 8.49 94.92 8.64 94.03 8.72 93.59 L 7.95 93.45 C 7.42 92.24 6.85 91.05 6.29 89.85 C 5.89 88.72 5.51 87.57 5.16 86.42 L 4.70 86.51 C 4.60 85.91 4.39 84.70 4.29 84.10 C 3.61 82.30 3.36 80.39 3.12 78.50 L 2.66 78.55 C 2.61 75.17 2.62 71.79 2.67 68.42 L 3.22 68.58 C 3.36 66.73 3.53 64.89 3.81 63.07 C 4.31 62.08 4.80 61.10 5.29 60.12 C 5.79 58.56 6.35 57.02 6.84 55.46 L 7.81 55.46 C 7.68 55.00 7.42 54.09 7.29 53.64 L 8.66 53.47 C 8.59 53.01 8.46 52.10 8.39 51.64 L 9.77 51.49 C 9.67 51.02 9.47 50.10 9.37 49.64 L 10.74 49.46 C 10.65 49.00 10.48 48.07 10.39 47.61 L 11.80 47.46 C 11.69 47.00 11.48 46.07 11.37 45.61 L 12.72 45.47 C 12.65 45.01 12.49 44.11 12.42 43.66 L 13.72 43.45 C 13.64 42.99 13.47 42.08 13.39 41.62 L 14.75 41.44 C 14.65 40.98 14.46 40.06 14.36 39.59 L 15.73 39.45 C 15.63 39.00 15.43 38.09 15.33 37.63 L 16.65 37.45 C 16.58 37.00 16.44 36.10 16.37 35.64 L 17.71 35.46 C 17.63 35.00 17.45 34.07 17.36 33.60 L 18.74 33.43 C 18.64 32.98 18.46 32.08 18.37 31.62 L 19.68 31.41 C 19.61 30.97 19.48 30.08 19.41 29.64 L 20.70 29.48 C 20.60 29.02 20.41 28.11 20.31 27.66 L 21.72 27.40 C 21.64 26.94 21.49 26.04 21.41 25.59 L 22.71 25.43 C 22.62 24.98 22.44 24.07 22.34 23.62 L 23.73 23.45 C 23.64 22.99 23.46 22.07 23.37 21.61 L 24.82 21.43 L 24.34 19.75 C 24.68 19.72 25.37 19.64 25.71 19.61 L 25.39 18.40 L 26.71 18.42 C 26.62 17.98 26.45 17.10 26.36 16.66 L 27.69 16.72 L 27.44 15.39 L 28.09 15.59 C 28.52 15.23 29.37 14.52 29.80 14.17 L 29.24 13.51 L 30.57 13.56 L 30.54 12.40 C 30.80 12.36 31.33 12.29 31.60 12.26 C 32.86 11.35 34.22 10.60 35.62 9.94 L 35.43 8.61 C 35.69 8.81 36.22 9.22 36.49 9.43 C 38.18 8.75 39.97 8.42 41.76 8.13 L 41.21 7.46 Z" />
<path fill="#030304" opacity="1.00" d=" M 199.42 7.61 C 202.49 7.37 205.57 7.29 208.66 7.46 L 208.27 8.49 C 208.91 8.53 210.20 8.60 210.84 8.64 C 211.34 9.81 211.85 10.98 212.39 12.13 C 212.52 13.75 212.64 15.37 212.67 17.00 C 212.67 49.00 212.67 81.01 212.70 113.01 C 212.54 120.55 212.91 128.10 212.42 135.64 L 211.25 135.46 L 211.54 136.61 L 211.31 137.11 C 209.95 137.87 208.59 138.62 207.22 139.35 C 204.90 139.31 202.57 139.34 200.25 139.40 L 200.41 138.18 C 199.94 138.35 199.01 138.70 198.55 138.87 L 198.79 137.35 L 197.67 137.71 C 196.92 135.85 196.28 133.95 195.70 132.04 C 195.70 115.20 195.81 98.36 195.56 81.53 C 179.30 81.48 163.04 81.58 146.78 81.50 C 146.51 82.08 145.95 83.23 145.67 83.81 C 145.61 100.55 145.86 117.30 145.50 134.03 C 144.89 138.98 138.99 139.57 135.01 139.43 C 133.79 138.97 132.55 138.53 131.31 138.13 L 131.86 137.11 L 130.40 137.73 L 130.81 136.40 L 129.64 136.53 C 129.59 135.76 129.49 134.22 129.44 133.45 L 128.66 133.56 C 128.83 100.03 128.67 66.49 128.71 32.96 C 128.83 25.25 128.13 17.46 129.86 9.87 C 130.32 9.72 131.23 9.43 131.69 9.28 L 131.56 8.06 C 132.02 8.25 132.93 8.62 133.39 8.80 L 133.33 7.47 C 136.15 7.33 138.97 7.36 141.79 7.50 L 141.45 8.80 C 141.92 8.64 142.87 8.31 143.34 8.15 L 143.44 9.59 L 144.71 9.55 C 144.73 9.81 144.75 10.34 144.77 10.60 C 146.00 13.59 145.64 16.88 145.68 20.03 C 145.65 34.86 145.72 49.70 145.69 64.54 C 162.34 64.84 179.01 64.63 195.66 64.64 C 195.72 49.12 195.67 33.59 195.67 18.07 C 195.58 15.47 196.24 12.95 196.71 10.42 L 197.72 10.54 C 197.70 10.04 197.65 9.03 197.62 8.52 C 198.12 8.58 199.10 8.70 199.60 8.76 L 199.42 7.61 Z" />
<path fill="#030304" opacity="1.00" d=" M 383.35 7.31 C 402.56 7.23 421.78 7.29 440.99 7.25 C 444.62 7.11 448.07 8.39 451.64 8.80 L 451.57 9.81 L 453.89 9.22 L 452.09 10.46 C 452.94 10.50 454.64 10.58 455.49 10.62 C 455.49 11.08 455.49 12.01 455.49 12.47 C 456.01 12.44 457.03 12.38 457.55 12.35 L 457.43 13.63 C 457.91 13.62 458.87 13.61 459.35 13.60 C 459.36 14.09 459.39 15.07 459.40 15.56 L 460.69 15.35 L 460.37 16.62 L 461.69 16.50 C 461.67 16.97 461.63 17.90 461.61 18.37 C 461.97 18.42 462.69 18.52 463.05 18.58 C 463.35 19.16 463.96 20.33 464.26 20.92 C 464.97 22.92 465.62 24.95 466.34 26.95 C 466.87 36.96 466.66 47.00 466.68 57.02 C 466.53 61.35 466.87 65.72 466.08 70.00 C 465.59 71.30 465.15 72.61 464.67 73.91 C 464.14 75.08 463.60 76.24 463.11 77.41 L 462.75 77.45 C 461.87 78.80 460.95 80.13 460.07 81.48 C 459.71 81.50 459.00 81.54 458.64 81.56 C 458.60 81.90 458.53 82.56 458.49 82.89 C 457.55 83.68 456.62 84.48 455.72 85.31 C 455.38 85.32 454.71 85.34 454.38 85.36 L 454.45 86.13 C 453.79 86.50 452.46 87.24 451.80 87.61 C 451.47 87.39 450.80 86.95 450.47 86.73 L 450.75 88.24 C 447.47 88.48 444.28 89.37 440.99 89.41 C 427.24 89.47 413.48 89.29 399.73 89.49 C 399.63 103.34 399.72 117.18 399.67 131.03 C 399.73 132.84 399.28 134.61 398.50 136.24 C 398.51 136.45 398.53 136.86 398.53 137.07 C 397.07 137.85 395.61 138.62 394.16 139.41 C 391.33 139.50 388.53 139.24 385.84 138.38 C 382.53 135.06 383.20 130.27 383.17 126.00 C 383.22 121.34 383.20 116.68 382.76 112.03 C 383.75 105.71 382.58 99.36 382.78 93.01 C 382.80 73.67 382.74 54.33 382.80 35.00 C 382.79 33.33 382.79 31.67 382.80 30.01 C 382.98 22.44 382.28 14.83 383.35 7.31 M 400.75 25.55 L 399.67 25.37 C 399.70 40.46 399.70 55.55 399.61 70.63 L 400.57 70.66 C 400.47 71.11 400.26 72.01 400.15 72.46 C 414.70 72.57 429.25 72.43 443.80 72.50 L 443.24 71.56 C 443.92 71.49 445.29 71.34 445.97 71.27 C 447.02 70.12 448.09 68.97 449.18 67.85 C 450.19 58.94 449.48 49.96 449.69 41.02 C 449.51 36.91 450.29 32.56 448.62 28.66 C 448.64 28.39 448.69 27.84 448.71 27.56 L 447.93 27.69 C 447.51 27.29 446.68 26.49 446.26 26.09 L 446.46 25.20 C 446.18 25.27 445.62 25.41 445.34 25.48 C 443.97 24.78 442.52 24.44 441.00 24.46 C 427.37 24.48 413.73 24.45 400.10 24.48 L 400.75 25.55 Z" />
<path fill="#030304" opacity="1.00" d=" M 292.56 8.43 C 293.05 8.48 294.04 8.59 294.53 8.64 L 294.40 7.48 C 296.77 7.41 299.16 7.40 301.54 7.49 L 301.63 8.85 C 302.07 8.69 302.95 8.37 303.39 8.21 L 303.23 9.62 L 304.58 9.64 C 304.53 10.09 304.42 10.98 304.37 11.43 L 305.72 11.61 C 305.67 11.91 305.56 12.51 305.50 12.81 C 306.12 14.20 306.69 15.62 307.28 17.03 C 307.40 18.00 307.53 18.97 307.67 19.94 C 308.50 22.26 309.21 24.63 309.85 27.01 C 310.61 29.48 311.33 31.98 311.86 34.51 L 312.18 34.44 C 312.45 35.95 312.74 37.46 313.12 38.95 C 313.45 39.99 313.80 41.02 314.15 42.05 C 314.68 44.04 315.27 46.01 315.77 48.01 C 316.50 50.31 317.22 52.62 317.88 54.95 C 318.65 57.62 319.37 60.31 320.10 63.00 C 320.44 64.06 320.79 65.12 321.16 66.18 C 321.33 67.15 321.50 68.13 321.67 69.10 C 322.16 70.38 322.60 71.67 323.06 72.95 C 323.28 74.01 323.50 75.06 323.71 76.12 C 324.25 77.74 324.71 79.37 325.22 81.00 C 325.50 82.01 325.81 83.01 326.13 84.01 C 326.78 86.36 327.46 88.70 328.10 91.05 C 328.46 92.32 328.83 93.60 329.24 94.86 C 329.52 95.93 329.81 96.99 330.12 98.05 C 330.67 100.03 331.28 101.99 331.82 103.98 C 332.52 106.31 333.18 108.65 333.78 111.01 C 334.93 114.82 336.06 118.65 336.87 122.56 L 337.39 122.41 C 337.49 123.77 337.59 125.13 337.69 126.50 L 338.36 126.33 C 338.49 126.95 338.75 128.20 338.88 128.82 C 340.05 131.38 339.45 134.04 338.35 136.49 L 337.31 136.35 L 337.39 137.74 C 336.93 137.64 336.01 137.42 335.56 137.31 L 335.38 138.78 C 334.95 138.69 334.08 138.51 333.65 138.41 L 333.65 139.34 C 332.71 139.33 330.83 139.31 329.90 139.31 C 328.93 138.93 327.97 138.56 327.01 138.20 C 326.24 137.46 325.45 136.74 324.67 136.03 L 324.78 135.33 L 323.89 135.48 C 323.38 133.95 322.82 132.43 322.28 130.91 C 321.78 129.57 321.32 128.23 320.84 126.90 C 320.61 125.97 320.39 125.04 320.17 124.12 C 319.80 123.07 319.45 122.01 319.11 120.95 C 318.81 119.95 318.52 118.94 318.25 117.93 C 317.91 116.92 317.59 115.90 317.28 114.89 C 316.89 113.71 316.51 112.52 316.17 111.33 L 315.27 111.63 L 315.80 110.48 C 303.84 110.59 291.87 110.55 279.91 110.56 C 279.23 112.37 278.54 114.18 277.85 115.99 C 276.91 119.34 275.81 122.65 274.74 125.96 C 274.45 126.96 274.14 127.96 273.82 128.96 C 273.31 130.84 272.73 132.70 272.21 134.57 L 271.24 134.31 L 271.70 135.62 L 270.42 135.53 C 270.42 136.02 270.41 136.98 270.41 137.46 C 269.92 137.44 268.94 137.41 268.45 137.39 L 268.41 138.65 C 268.14 138.65 267.59 138.66 267.31 138.66 C 265.17 139.57 262.85 139.65 260.72 138.67 C 260.43 138.67 259.84 138.66 259.55 138.65 L 259.50 137.38 C 259.08 137.39 258.24 137.42 257.82 137.44 C 255.53 134.02 256.15 129.81 257.11 126.06 C 257.48 125.05 257.85 124.05 258.23 123.05 C 258.70 121.02 259.30 119.03 259.84 117.02 C 260.55 114.70 261.23 112.37 261.91 110.04 C 262.20 109.00 262.48 107.96 262.75 106.91 C 263.17 105.64 263.55 104.36 263.94 103.09 C 264.23 102.06 264.51 101.02 264.78 99.98 C 265.14 98.99 265.49 97.99 265.83 96.99 C 266.29 95.32 266.69 93.64 267.14 91.97 C 267.51 90.96 267.89 89.95 268.28 88.95 C 268.43 87.78 268.57 86.62 268.71 85.45 L 269.17 85.60 C 269.96 82.00 271.12 78.49 272.10 74.94 C 272.49 73.62 272.89 72.30 273.34 71.00 C 273.42 70.48 273.58 69.45 273.66 68.94 C 274.47 66.66 275.20 64.37 275.93 62.06 C 276.22 61.03 276.50 59.99 276.78 58.94 C 277.16 57.65 277.48 56.34 277.79 55.03 C 278.27 53.67 278.72 52.29 279.23 50.94 C 279.39 49.95 279.56 48.97 279.74 47.99 C 280.24 46.65 280.71 45.30 281.19 43.96 C 281.53 42.62 281.90 41.28 282.34 39.97 C 282.42 39.33 282.58 38.04 282.66 37.40 L 283.38 37.64 C 283.49 36.45 283.62 35.25 283.75 34.06 C 284.13 33.04 284.50 32.01 284.87 30.98 C 285.59 28.49 286.31 25.98 286.84 23.43 L 287.16 23.55 C 287.58 21.64 288.12 19.76 288.64 17.87 C 289.25 16.16 289.85 14.44 290.55 12.76 C 290.47 12.48 290.32 11.92 290.25 11.64 L 291.50 11.54 L 291.30 10.28 L 292.51 10.48 C 292.52 9.97 292.54 8.94 292.56 8.43 M 296.12 53.44 L 295.85 53.41 C 295.55 54.66 295.22 55.90 294.84 57.12 C 294.62 58.04 294.40 58.97 294.19 59.89 C 293.70 61.27 293.26 62.67 292.79 64.05 C 292.48 65.38 292.18 66.72 291.83 68.04 C 291.46 69.06 291.07 70.08 290.68 71.10 C 290.55 72.24 290.42 73.39 290.31 74.53 L 289.59 74.42 C 289.54 75.06 289.43 76.34 289.37 76.99 C 288.77 78.63 288.26 80.30 287.70 81.96 C 287.43 82.98 287.16 84.00 286.87 85.02 C 286.61 85.99 286.35 86.97 286.09 87.94 C 285.61 89.73 285.34 91.57 285.10 93.40 C 293.66 93.37 302.21 93.41 310.76 93.36 C 310.56 91.89 310.34 90.43 310.11 88.97 C 309.59 87.67 309.11 86.37 308.60 85.07 C 308.54 84.42 308.42 83.12 308.35 82.47 L 307.78 82.59 C 307.28 80.02 306.64 77.47 305.90 74.96 C 305.31 72.96 304.72 70.96 304.22 68.95 C 303.33 66.31 302.60 63.62 301.90 60.93 C 301.51 59.61 301.13 58.29 300.68 57.00 C 300.58 56.50 300.38 55.51 300.28 55.01 C 299.33 52.35 298.57 49.62 297.98 46.87 C 297.40 49.07 296.68 51.24 296.12 53.44 Z" />
<path fill="#030304" opacity="1.00" d=" M 509.43 7.35 C 530.88 7.39 552.35 6.93 573.79 7.52 L 573.15 8.39 C 574.63 8.47 576.12 8.55 577.62 8.64 L 577.63 9.62 C 578.09 9.50 578.99 9.26 579.44 9.14 L 579.58 10.78 C 579.93 10.68 580.64 10.49 580.99 10.39 C 582.73 11.91 584.48 13.43 586.26 14.91 C 587.14 16.07 588.02 17.23 588.89 18.41 L 589.16 18.32 C 589.49 18.78 590.14 19.69 590.47 20.15 C 590.47 20.34 590.48 20.71 590.48 20.90 C 591.09 22.23 591.68 23.57 592.29 24.91 C 594.04 35.19 593.06 45.65 593.34 56.02 C 593.56 61.05 592.97 66.04 592.21 71.00 C 591.69 72.31 591.20 73.62 590.66 74.92 C 590.12 76.08 589.56 77.24 589.05 78.41 L 588.37 78.39 L 588.19 78.86 C 587.45 79.69 586.72 80.53 586.01 81.37 L 585.36 81.43 L 585.57 82.63 L 584.22 82.33 L 584.64 83.06 C 584.26 83.46 583.48 84.27 583.10 84.68 L 582.39 84.27 L 582.39 85.70 C 581.92 85.58 580.97 85.35 580.49 85.23 L 580.74 86.75 L 579.46 86.20 L 579.58 87.38 C 578.73 87.40 577.02 87.43 576.16 87.45 L 576.73 88.21 C 574.50 88.57 572.34 89.34 570.08 89.35 C 555.53 89.44 540.98 89.35 526.44 89.43 C 526.15 103.56 526.46 117.70 526.28 131.84 C 525.85 133.42 525.51 135.03 525.20 136.64 L 524.91 136.43 C 524.49 136.77 523.64 137.46 523.22 137.80 L 523.69 138.24 C 520.45 139.17 516.97 140.09 513.71 138.71 C 513.54 138.69 513.20 138.64 513.03 138.61 C 512.40 138.18 511.14 137.31 510.51 136.88 C 510.55 136.53 510.61 135.84 510.65 135.49 L 509.61 135.52 C 509.13 92.80 509.48 50.07 509.43 7.35 M 526.46 72.50 C 541.23 72.46 556.01 72.67 570.78 72.38 L 570.47 71.04 C 570.94 71.22 571.89 71.59 572.37 71.77 L 572.47 70.39 C 572.87 70.40 573.68 70.42 574.08 70.43 C 574.89 68.35 575.67 66.26 576.27 64.11 C 576.13 53.38 576.89 42.57 575.87 31.90 C 575.67 30.72 575.50 29.53 575.34 28.34 L 574.38 28.49 C 574.43 28.01 574.53 27.06 574.58 26.58 C 574.05 26.55 572.99 26.50 572.46 26.47 L 572.52 25.09 C 572.06 25.22 571.13 25.49 570.67 25.62 L 570.73 24.60 C 555.94 24.31 541.14 24.47 526.35 24.42 C 526.40 40.44 526.18 56.47 526.46 72.50 Z" />
<path fill="#030304" opacity="1.00" d=" M 695.52 7.38 C 721.89 7.24 748.27 7.16 774.64 7.42 L 774.40 8.40 C 775.17 8.47 776.70 8.60 777.47 8.67 C 777.44 9.11 777.37 9.99 777.34 10.43 L 778.75 10.59 C 778.73 10.87 778.71 11.43 778.69 11.71 C 779.58 14.15 779.56 16.77 778.98 19.27 C 778.87 19.45 778.65 19.80 778.54 19.97 C 778.19 20.63 777.49 21.93 777.14 22.58 C 776.73 22.55 775.91 22.48 775.50 22.45 L 775.38 23.91 C 774.90 23.70 773.95 23.28 773.47 23.07 L 773.81 24.41 C 753.39 24.50 732.97 24.43 712.55 24.42 C 712.51 37.81 712.49 51.20 712.52 64.59 C 721.57 64.77 730.62 64.67 739.67 64.63 L 739.48 65.35 C 740.24 65.38 741.78 65.44 742.54 65.47 L 742.39 66.62 C 742.91 66.63 743.94 66.65 744.45 66.66 C 744.42 67.15 744.34 68.12 744.30 68.61 L 745.42 68.45 C 745.71 71.53 745.78 74.64 745.40 77.72 C 744.54 78.63 743.70 79.57 742.89 80.51 C 742.57 80.49 741.93 80.45 741.61 80.43 L 741.64 81.44 C 731.96 81.66 722.28 81.51 712.61 81.55 C 712.56 95.20 712.42 108.86 712.63 122.51 C 733.27 122.61 753.91 122.49 774.55 122.60 L 774.43 123.07 C 775.71 123.66 777.01 124.29 778.31 124.92 L 778.38 125.50 C 779.48 128.65 779.89 132.13 778.61 135.30 C 778.63 135.61 778.69 136.22 778.71 136.53 L 777.94 136.28 C 777.54 136.68 776.75 137.49 776.36 137.89 L 776.70 138.55 C 775.90 138.56 774.29 138.59 773.48 138.60 L 773.69 139.40 C 747.85 139.34 722.02 139.41 696.18 139.35 L 696.65 138.34 L 695.51 138.80 C 695.62 94.99 695.53 51.19 695.52 7.38 Z" />
</g>
<g id="#dc6758ff">
<path fill="#dc6758" opacity="1.00" d=" M 636.18 35.24 C 639.99 33.01 644.72 33.68 648.98 33.70 C 650.41 34.16 651.85 34.58 653.31 35.00 C 653.84 37.81 654.35 40.63 654.72 43.47 C 653.92 43.58 652.31 43.81 651.50 43.93 C 652.32 44.06 653.96 44.32 654.78 44.45 C 654.28 46.41 653.76 48.36 653.27 50.32 C 647.69 52.46 641.07 53.81 635.66 50.51 C 634.72 45.54 633.33 39.82 636.18 35.24 Z" />
<path fill="#dc6758" opacity="1.00" d=" M 622.47 70.63 C 623.50 69.57 624.55 68.53 625.60 67.48 C 634.51 67.18 643.43 67.34 652.35 67.48 C 654.93 71.85 654.63 76.99 654.74 81.88 C 654.83 86.23 655.37 90.57 654.88 94.91 C 654.24 101.29 655.42 107.64 655.33 114.03 C 655.29 118.19 655.46 122.35 655.58 126.51 C 661.20 126.59 666.92 126.09 672.40 127.70 C 672.49 128.19 672.68 129.17 672.77 129.66 C 675.51 131.57 673.99 134.69 673.39 137.27 C 671.05 138.36 668.66 139.62 666.00 139.50 C 653.67 139.56 641.34 139.50 629.01 139.59 C 626.92 139.81 625.13 138.72 623.41 137.73 C 623.43 134.99 623.46 132.25 623.54 129.52 C 624.34 129.53 625.94 129.56 626.74 129.58 C 626.66 129.06 626.51 128.03 626.43 127.52 C 631.83 127.36 637.28 127.58 642.61 126.49 C 642.21 118.99 642.84 111.45 641.82 104.00 C 641.29 99.97 642.57 95.99 642.24 91.96 C 641.91 87.77 641.47 83.57 641.52 79.36 C 635.91 79.51 630.28 79.37 624.75 78.36 C 624.02 77.63 623.30 76.89 622.59 76.15 C 622.55 74.31 622.50 72.47 622.47 70.63 Z" />
</g>
</svg>
